<?xml version="1.0" encoding="utf-8"?>
<!-- Generator: Adobe Illustrator 18.0.0, SVG Export Plug-In . SVG Version: 6.00 Build 0)  -->
<!DOCTYPE svg PUBLIC "-//W3C//DTD SVG 1.1//EN" "http://www.w3.org/Graphics/SVG/1.1/DTD/svg11.dtd">
<svg version="1.1" id="Layer_1" xmlns="http://www.w3.org/2000/svg" xmlns:xlink="http://www.w3.org/1999/xlink" x="0px" y="0px"
	 viewBox="0 0 283.4 83.3" enable-background="new 0 0 283.4 83.3" xml:space="preserve">
<path fill="#5B8DB5" d="M12.2,49.4h3.2v9.7h4.4v3.5h-7.5V49.4z"/>
<path fill="#5B8DB5" d="M21.2,62.6l5.7-13.2h1.4L34,62.6h-3.2l-0.7-1.7h-5l-0.7,1.7H21.2z M26.4,57.9h2.5L27.6,55L26.4,57.9z"/>
<path fill="#5B8DB5" d="M46.6,62.5V16.9h20.1c7.3,0,13.5,6.3,13.5,13.6c0,3.1-1.2,6-2.9,8.2c3.1,2.5,5.2,6.3,5.2,10.5
	c0,7.2-6.1,13.4-13.4,13.4H46.6z M64.3,34.7c2.2,0,4-1.8,4-4s-1.8-4-4-4h-5.8v7.9H64.3z M66.6,52.7c2.2,0,4-1.8,4-4c0-2.2-1.9-4-4-4
	h-8v7.9H66.6z"/>
<path fill="#5B8DB5" d="M89.5,16.9h12v45.6h-12V16.9z"/>
<path fill="#5B8DB5" d="M110.7,62.5V16.9h20.1c7.3,0,13.5,6.3,13.5,13.6c0,3.1-1.2,6-2.9,8.2c3.1,2.5,5.2,6.3,5.2,10.5
	c0,7.2-6.1,13.4-13.4,13.4H110.7z M128.5,34.7c2.2,0,4-1.8,4-4s-1.8-4-4-4h-5.8v7.9H128.5z M130.7,52.7c2.2,0,4-1.8,4-4
	c0-2.2-1.9-4-4-4h-8v7.9H130.7z"/>
<path fill="#5B8DB5" d="M153.7,16.9h12v33.6h16.4v12h-28.4V16.9z"/>
<path fill="#5B8DB5" d="M190.7,16.9h28.3v9.9h-16.4v7.4h14.5v10.1h-14.5v8.4h16.4v9.8h-28.3V16.9z"/>
<path fill="#5B8DB5" d="M262.2,36.5c1.2-1.4,2-2.9,2-4.7c0-2.3-2.2-5.2-5.4-5.2c-2.9,0-5.3,2.4-5.3,5.4h-9.8c0-7.8,6.1-15,15.4-15
	c8.9,0,14.8,7.8,14.8,15.2c0,4.7-2.7,8.4-2.7,8.4l-8.7,12.3h12.9v9.7h-31.6L262.2,36.5z"/>
<path fill="#FFFFFF" d="M11,47.7h3.2v9.7h4.4v3.5H11V47.7z"/>
<path fill="#FFFFFF" d="M20.1,60.9l5.7-13.2h1.4l5.7,13.2h-3.2l-0.7-1.7h-5l-0.7,1.7H20.1z M25.2,56.2h2.5l-1.2-2.9L25.2,56.2z"/>
<path fill="#FFFFFF" d="M45.8,61V15.4H66c7.3,0,13.5,6.3,13.5,13.6c0,3.1-1.2,6-2.9,8.2c3.1,2.5,5.2,6.3,5.2,10.5
	c0,7.2-6.1,13.4-13.4,13.4H45.8z M63.6,33.2c2.2,0,4-1.8,4-4s-1.8-4-4-4h-5.8v7.9H63.6z M65.8,51.1c2.2,0,4-1.8,4-4c0-2.2-1.9-4-4-4
	h-8v7.9H65.8z"/>
<path fill="#FFFFFF" d="M88.8,15.4h12V61h-12V15.4z"/>
<path fill="#FFFFFF" d="M110,61V15.4h20.1c7.3,0,13.5,6.3,13.5,13.6c0,3.1-1.2,6-2.9,8.2c3.1,2.5,5.2,6.3,5.2,10.5
	c0,7.2-6.1,13.4-13.4,13.4H110z M127.7,33.2c2.2,0,4-1.8,4-4s-1.8-4-4-4H122v7.9H127.7z M130,51.1c2.2,0,4-1.8,4-4c0-2.2-1.9-4-4-4
	h-8v7.9H130z"/>
<path fill="#FFFFFF" d="M153,15.4h12v33.6h16.4v12H153V15.4z"/>
<path fill="#FFFFFF" d="M190,15.4h28.3v9.9H202v7.4h14.5v10.1H202v8.4h16.4V61H190V15.4z"/>
<path fill="#FFFFFF" d="M261.5,34.9c1.2-1.4,2-2.9,2-4.7c0-2.3-2.2-5.2-5.4-5.2c-2.9,0-5.3,2.4-5.3,5.4H243c0-7.8,6.1-15,15.4-15
	c8.9,0,14.8,7.8,14.8,15.2c0,4.7-2.7,8.4-2.7,8.4l-8.7,12.3h12.9V61h-31.6L261.5,34.9z"/>
</svg>
