<?xml version="1.0" encoding="utf-8"?>
<!-- Generator: Adobe Illustrator 18.0.0, SVG Export Plug-In . SVG Version: 6.00 Build 0)  -->
<!DOCTYPE svg PUBLIC "-//W3C//DTD SVG 1.1//EN" "http://www.w3.org/Graphics/SVG/1.1/DTD/svg11.dtd">
<svg version="1.1" xmlns="http://www.w3.org/2000/svg" xmlns:xlink="http://www.w3.org/1999/xlink" x="0px" y="0px"
	 viewBox="0 0 283.4 83.3" enable-background="new 0 0 283.4 83.3" xml:space="preserve">
<g id="Layer_1">
	<path fill="#5B8DB5" d="M12.2,49.4h3.2v9.7h4.4v3.5h-7.5V49.4z"/>
	<path fill="#5B8DB5" d="M21.2,62.6l5.7-13.2h1.4L34,62.6h-3.2l-0.7-1.7h-5l-0.7,1.7H21.2z M26.4,57.9h2.5L27.6,55L26.4,57.9z"/>
	<path fill="#5B8DB5" d="M46.6,62.5V16.9h20.1c7.3,0,13.5,6.3,13.5,13.6c0,3.1-1.2,6-2.9,8.2c3.1,2.5,5.2,6.3,5.2,10.5
		c0,7.2-6.1,13.4-13.4,13.4H46.6z M64.3,34.7c2.2,0,4-1.8,4-4s-1.8-4-4-4h-5.8v7.9H64.3z M66.6,52.7c2.2,0,4-1.8,4-4
		c0-2.2-1.9-4-4-4h-8v7.9H66.6z"/>
	<path fill="#5B8DB5" d="M89.5,16.9h12v45.6h-12V16.9z"/>
	<path fill="#5B8DB5" d="M110.7,62.5V16.9h20.1c7.3,0,13.5,6.3,13.5,13.6c0,3.1-1.2,6-2.9,8.2c3.1,2.5,5.2,6.3,5.2,10.5
		c0,7.2-6.1,13.4-13.4,13.4H110.7z M128.5,34.7c2.2,0,4-1.8,4-4s-1.8-4-4-4h-5.8v7.9H128.5z M130.7,52.7c2.2,0,4-1.8,4-4
		c0-2.2-1.9-4-4-4h-8v7.9H130.7z"/>
	<path fill="#5B8DB5" d="M153.7,16.9h12v33.6h16.4v12h-28.4V16.9z"/>
	<path fill="#5B8DB5" d="M190.7,16.9h28.3v9.9h-16.4v7.4h14.5v10.1h-14.5v8.4h16.4v9.8h-28.3V16.9z"/>
	<path fill="#5B8DB5" d="M262.2,36.5c1.2-1.4,2-2.9,2-4.7c0-2.3-2.2-5.2-5.4-5.2c-2.9,0-5.3,2.4-5.3,5.4h-9.8c0-7.8,6.1-15,15.4-15
		c8.9,0,14.8,7.8,14.8,15.2c0,4.7-2.7,8.4-2.7,8.4l-8.7,12.3h12.9v9.7h-31.6L262.2,36.5z"/>
	<g>
		<path fill="#FFFFFF" d="M11,47.7h3.2v9.7h4.4v3.5H11V47.7z"/>
		<path fill="#FFFFFF" d="M20.1,60.9l5.7-13.2h1.4l5.7,13.2h-3.2l-0.7-1.7h-5l-0.7,1.7H20.1z M25.2,56.2h2.5l-1.2-2.9L25.2,56.2z"/>
		<path fill="#FFFFFF" d="M45.8,61V15.4H66c7.3,0,13.5,6.3,13.5,13.6c0,3.1-1.2,6-2.9,8.2c3.1,2.5,5.2,6.3,5.2,10.5
			c0,7.2-6.1,13.4-13.4,13.4H45.8z M63.6,33.2c2.2,0,4-1.8,4-4s-1.8-4-4-4h-5.8v7.9H63.6z M65.8,51.1c2.2,0,4-1.8,4-4
			c0-2.2-1.9-4-4-4h-8v7.9H65.8z"/>
		<path fill="#FFFFFF" d="M88.8,15.4h12V61h-12V15.4z"/>
		<path fill="#FFFFFF" d="M110,61V15.4h20.1c7.3,0,13.5,6.3,13.5,13.6c0,3.1-1.2,6-2.9,8.2c3.1,2.5,5.2,6.3,5.2,10.5
			c0,7.2-6.1,13.4-13.4,13.4H110z M127.7,33.2c2.2,0,4-1.8,4-4s-1.8-4-4-4H122v7.9H127.7z M130,51.1c2.2,0,4-1.8,4-4
			c0-2.2-1.9-4-4-4h-8v7.9H130z"/>
		<path fill="#FFFFFF" d="M153,15.4h12v33.6h16.4v12H153V15.4z"/>
		<path fill="#FFFFFF" d="M190,15.4h28.3v9.9H202v7.4h14.5v10.1H202v8.4h16.4V61H190V15.4z"/>
		<path fill="#FFFFFF" d="M261.5,34.9c1.2-1.4,2-2.9,2-4.7c0-2.3-2.2-5.2-5.4-5.2c-2.9,0-5.3,2.4-5.3,5.4H243c0-7.8,6.1-15,15.4-15
			c8.9,0,14.8,7.8,14.8,15.2c0,4.7-2.7,8.4-2.7,8.4l-8.7,12.3h12.9V61h-31.6L261.5,34.9z"/>
	</g>
</g>
<g id="Layer_2">
</g>
<g id="Layer_3">
	
		<radialGradient id="SVGID_1_" cx="182.872" cy="119.242" r="219.3854" gradientTransform="matrix(4.780561e-11 -0.823 1.0648 3.694774e-11 80.9923 173.6004)" gradientUnits="userSpaceOnUse">
		<stop  offset="0" style="stop-color:#1272A1"/>
		<stop  offset="0.6482" style="stop-color:#1A214A"/>
		<stop  offset="1" style="stop-color:#000327"/>
	</radialGradient>
	<polygon fill="url(#SVGID_1_)" points="14.2,47.7 11,47.7 11,60.9 18.6,60.9 18.6,57.4 14.2,57.4 	"/>
	<g>
		<polygon fill="none" points="25.2,56.2 27.7,56.2 26.5,53.3 		"/>
		
			<radialGradient id="SVGID_2_" cx="182.872" cy="119.242" r="219.3854" gradientTransform="matrix(4.780561e-11 -0.823 1.0648 3.694774e-11 80.9923 173.6004)" gradientUnits="userSpaceOnUse">
			<stop  offset="0" style="stop-color:#1272A1"/>
			<stop  offset="0.6482" style="stop-color:#1A214A"/>
			<stop  offset="1" style="stop-color:#000327"/>
		</radialGradient>
		<path fill="url(#SVGID_2_)" d="M25.7,47.7l-5.7,13.2h3.2l0.7-1.7h5l0.7,1.7h3.2l-5.7-13.2H25.7z M25.2,56.2l1.2-2.9l1.2,2.9H25.2z
			"/>
	</g>
	<g>
		<path fill="none" d="M65.8,43.2h-8v7.9h8c2.2,0,4-1.8,4-4C69.8,45,67.9,43.2,65.8,43.2z"/>
		<path fill="none" d="M67.5,29.2c0-2.2-1.8-4-4-4h-5.8v7.9h5.8C65.8,33.2,67.5,31.4,67.5,29.2z"/>
		
			<radialGradient id="SVGID_3_" cx="182.872" cy="119.242" r="219.3854" gradientTransform="matrix(4.780561e-11 -0.823 1.0648 3.694774e-11 80.9923 173.6004)" gradientUnits="userSpaceOnUse">
			<stop  offset="0" style="stop-color:#1272A1"/>
			<stop  offset="0.6482" style="stop-color:#1A214A"/>
			<stop  offset="1" style="stop-color:#000327"/>
		</radialGradient>
		<path fill="url(#SVGID_3_)" d="M76.5,37.1c1.8-2.2,2.9-5.1,2.9-8.2c0-7.3-6.2-13.6-13.5-13.6H45.8V61h22.5
			c7.2,0,13.4-6.1,13.4-13.4C81.7,43.5,79.6,39.6,76.5,37.1z M57.8,25.3h5.8c2.2,0,4,1.8,4,4c0,2.2-1.8,4-4,4h-5.8V25.3z M65.8,51.1
			h-8v-7.9h8c2.1,0,4,1.8,4,4C69.8,49.4,68,51.1,65.8,51.1z"/>
	</g>
	
		<radialGradient id="SVGID_4_" cx="182.872" cy="119.242" r="219.3854" gradientTransform="matrix(4.780561e-11 -0.823 1.0648 3.694774e-11 80.9923 173.6004)" gradientUnits="userSpaceOnUse">
		<stop  offset="0" style="stop-color:#1272A1"/>
		<stop  offset="0.6482" style="stop-color:#1A214A"/>
		<stop  offset="1" style="stop-color:#000327"/>
	</radialGradient>
	<rect x="88.8" y="15.4" fill="url(#SVGID_4_)" width="12" height="45.6"/>
	<g>
		<path fill="none" d="M131.7,29.2c0-2.2-1.8-4-4-4H122v7.9h5.8C129.9,33.2,131.7,31.4,131.7,29.2z"/>
		<path fill="none" d="M130,43.2h-8v7.9h8c2.2,0,4-1.8,4-4C133.9,45,132.1,43.2,130,43.2z"/>
		
			<radialGradient id="SVGID_5_" cx="182.872" cy="119.242" r="219.3854" gradientTransform="matrix(4.780561e-11 -0.823 1.0648 3.694774e-11 80.9923 173.6004)" gradientUnits="userSpaceOnUse">
			<stop  offset="0" style="stop-color:#1272A1"/>
			<stop  offset="0.6482" style="stop-color:#1A214A"/>
			<stop  offset="1" style="stop-color:#000327"/>
		</radialGradient>
		<path fill="url(#SVGID_5_)" d="M140.7,37.1c1.8-2.2,2.9-5.1,2.9-8.2c0-7.3-6.2-13.6-13.5-13.6H110V61h22.5
			c7.2,0,13.4-6.1,13.4-13.4C145.9,43.5,143.8,39.6,140.7,37.1z M122,25.3h5.8c2.2,0,4,1.8,4,4c0,2.2-1.8,4-4,4H122V25.3z M130,51.1
			h-8v-7.9h8c2.1,0,4,1.8,4,4C133.9,49.4,132.2,51.1,130,51.1z"/>
	</g>
	
		<radialGradient id="SVGID_6_" cx="182.872" cy="119.242" r="219.3854" gradientTransform="matrix(4.780561e-11 -0.823 1.0648 3.694774e-11 80.9923 173.6004)" gradientUnits="userSpaceOnUse">
		<stop  offset="0" style="stop-color:#1272A1"/>
		<stop  offset="0.6482" style="stop-color:#1A214A"/>
		<stop  offset="1" style="stop-color:#000327"/>
	</radialGradient>
	<polygon fill="url(#SVGID_6_)" points="165,15.4 153,15.4 153,61 181.4,61 181.4,48.9 165,48.9 	"/>
	
		<radialGradient id="SVGID_7_" cx="182.872" cy="119.242" r="219.3854" gradientTransform="matrix(4.780561e-11 -0.823 1.0648 3.694774e-11 80.9923 173.6004)" gradientUnits="userSpaceOnUse">
		<stop  offset="0" style="stop-color:#1272A1"/>
		<stop  offset="0.6482" style="stop-color:#1A214A"/>
		<stop  offset="1" style="stop-color:#000327"/>
	</radialGradient>
	<polygon fill="url(#SVGID_7_)" points="190,61 218.3,61 218.3,51.2 202,51.2 202,42.8 216.5,42.8 216.5,32.7 202,32.7 202,25.3 
		218.3,25.3 218.3,15.4 190,15.4 	"/>
	
		<radialGradient id="SVGID_8_" cx="182.872" cy="119.242" r="219.3854" gradientTransform="matrix(4.780561e-11 -0.823 1.0648 3.694774e-11 80.9923 173.6004)" gradientUnits="userSpaceOnUse">
		<stop  offset="0" style="stop-color:#1272A1"/>
		<stop  offset="0.6482" style="stop-color:#1A214A"/>
		<stop  offset="1" style="stop-color:#000327"/>
	</radialGradient>
	<path fill="url(#SVGID_8_)" d="M270.5,39c0,0,2.7-3.6,2.7-8.4c0-7.4-5.9-15.2-14.8-15.2c-9.4,0-15.4,7.2-15.4,15h9.8
		c0-3,2.4-5.4,5.3-5.4c3.2,0,5.4,2.9,5.4,5.2c0,1.8-0.9,3.3-2,4.7L243.1,61h31.6v-9.7h-12.9L270.5,39z"/>
</g>
</svg>
